<svg width="644" height="355" viewBox="0 0 644 355" fill="none" xmlns="http://www.w3.org/2000/svg">
<path d="M348.819 262.596C267.392 287.868 190.726 301.189 132.607 302.305C103.544 302.863 79.148 300.368 61.1218 294.808C43.0769 289.242 31.5397 280.647 27.9551 269.097C24.3704 257.548 29.0135 243.93 40.736 229.126C52.4463 214.336 71.1425 198.467 95.4142 182.471C143.952 150.484 214.687 118.056 296.114 92.7834C377.541 67.5108 454.207 54.1901 512.326 53.0743C541.389 52.5163 565.785 55.011 583.811 60.5712C601.856 66.1371 613.393 74.7323 616.978 86.2818C620.562 97.8314 615.919 111.448 604.197 126.253C592.486 141.043 573.79 156.912 549.519 172.908C500.981 204.895 430.246 237.323 348.819 262.596Z" stroke="url(#paint0_linear_107_2)"/>
<path d="M492.727 34.75L487.352 48.75L473.019 54L487.352 59.25L492.727 73.25L498.102 59.25L512.435 54L498.102 48.75L492.727 34.75Z" fill="white"/>
<path d="M322.856 270.576L326.166 264.801L324.426 258.375L330.851 256.636L334.161 250.86L339.937 254.169L346.362 252.429L348.102 258.855L353.878 262.164L350.568 267.94L352.308 274.365L345.882 276.105L342.573 281.881L336.797 278.572L330.372 280.311L328.632 273.886L322.856 270.576Z" fill="white"/>
<defs>
<linearGradient id="paint0_linear_107_2" x1="616.783" y1="103.767" x2="150.792" y2="-20.1055" gradientUnits="userSpaceOnUse">
<stop stop-color="white"/>
<stop offset="1" stop-color="white" stop-opacity="0"/>
</linearGradient>
</defs>
</svg>
